<svg width="83" height="83" viewBox="0 0 83 83" fill="none" xmlns="http://www.w3.org/2000/svg">
<path d="M79.6214 0.213379H4.01475C2.14854 0.213379 0.635681 1.72624 0.635681 3.59245V79.1991C0.635681 81.0653 2.14854 82.5782 4.01475 82.5782H67.7121C68.646 82.5782 69.5383 82.1916 70.1771 81.5103L82.0864 68.8083C82.6736 68.182 83.0005 67.3557 83.0005 66.4971V3.59245C83.0005 1.72624 81.4876 0.213379 79.6214 0.213379Z" fill="#161616"/>
<g clip-path="url(#clip0_665_2425)">
<path d="M57.7071 32.221C56.6923 31.4906 55.6005 31.6152 55.3101 31.6567L55.2891 32.9999H55.2856V39.2555C54.8726 39.0513 54.3687 38.9336 53.8298 38.9336C52.4091 38.9336 51.2578 39.7506 51.2578 40.7614C51.2578 41.7723 52.4091 42.5893 53.8298 42.5893C55.2506 42.5893 56.4019 41.7723 56.4019 40.7614C56.4019 40.7199 56.4019 40.6783 56.3949 40.6368H56.4019V33.4811C56.6398 33.5677 56.8883 33.6888 57.1402 33.8585C57.4202 34.0454 57.9171 34.3916 58.2495 35.0667C58.6344 35.856 58.554 36.6107 58.5085 36.8945C58.7044 36.6176 59.0614 36.036 59.1279 35.2294C59.2258 34.0073 58.5995 32.8615 57.7106 32.221H57.7071Z" fill="white"/>
<path d="M30.2547 52.1022C30.6676 51.9014 31.1716 51.7802 31.7105 51.7802C33.1312 51.7802 34.2825 52.6007 34.2825 53.6081C34.2825 54.6155 33.1312 55.436 31.7105 55.436C30.2897 55.436 29.1384 54.619 29.1384 53.6081C29.1384 53.5666 29.1384 53.525 29.1454 53.4835H29.1384V46.3278C28.9005 46.4144 28.652 46.5355 28.4001 46.7052C28.1201 46.8921 27.6232 47.2383 27.2908 47.9133C26.9058 48.7026 26.9898 49.4573 27.0318 49.7412C26.8359 49.4643 26.4789 48.8827 26.4124 48.0761C26.3144 46.854 26.9408 45.7081 27.8297 45.0677C28.8445 44.3372 29.9363 44.4619 30.2267 44.5034L30.2477 45.8466H30.2512V52.1022H30.2547Z" fill="white"/>
<path fill-rule="evenodd" clip-rule="evenodd" d="M57.9938 25.5676C55.7157 23.3208 53.0422 21.6107 50.1273 20.4959C50.8446 19.0731 51.576 17.7265 52.3144 16.4629H37.4946L36.9837 18.1557C36.8367 18.6439 36.6862 19.132 36.5393 19.6236C32.5185 20.579 28.8267 22.6111 25.8277 25.571C21.5305 29.8083 19.165 35.4477 19.165 41.4436C19.165 47.4396 21.5305 53.0755 25.8277 57.3162C30.125 61.557 35.8359 63.8903 41.9108 63.8903C47.9856 63.8903 53.6966 61.5535 57.9938 57.3162C62.291 53.0755 64.6566 47.4396 64.6566 41.4436C64.6566 35.4477 62.291 29.8118 57.9938 25.571V25.5676ZM41.9108 61.5224C30.6918 61.5224 21.5655 52.5146 21.5655 41.4436C21.5655 32.4982 27.5214 24.9029 35.7274 22.3134L35.2235 23.982C35.017 24.6606 34.8141 25.3391 34.6076 26.0176C34.5796 25.9934 34.5551 25.9726 34.5306 25.9553C34.5061 25.938 34.4816 25.9241 34.4606 25.9138C34.4502 25.9103 34.4432 25.9034 34.4362 25.8999C33.5368 25.4706 31.9131 27.1912 29.3726 29.8776L29.3691 29.8845C29.0472 30.2272 28.5327 30.7811 28.0463 31.6293C27.6894 32.2524 27.4759 32.8132 27.3465 33.2113C27.1085 33.4225 26.7901 33.7341 26.4716 34.1599C26.3142 34.3676 25.1384 35.9289 25.2154 37.3136C25.2783 38.4457 26.1602 39.1103 29.3656 41.5198L29.6385 41.724C31.9341 43.4515 33.0749 44.3204 33.2604 44.4658C34.4467 45.3901 34.8981 45.9233 35.7484 46.9272C36.0284 47.2561 36.3503 47.6403 36.7597 48.1042C36.7597 48.1042 37.9215 49.5028 39.0973 50.6452C39.8182 51.3445 41.2529 52.7327 43.0971 53.6294C44.4303 54.2767 46.0995 54.4187 49.3854 54.6783C50.3652 54.7545 55.3868 55.1179 56.8985 53.7921C57.5529 53.2174 57.7139 52.5423 57.7139 52.5423C57.8258 52.0681 57.7488 51.6561 57.6789 51.4172C57.7628 49.939 57.3359 49.1289 56.979 48.672C56.1706 47.6507 54.6624 47.1488 53.3257 46.7056C52.2059 46.3318 51.2121 46.0029 50.8516 45.4386C50.5052 44.8986 50.2287 44.2754 50.2287 44.2754C50.1308 44.0573 50.0363 43.8219 49.9418 43.545C49.4134 42.0044 48.9655 40.6959 48.5945 39.5708C47.8387 39.595 46.9393 39.6781 45.949 39.8858C45.1862 40.045 44.5633 40.2389 44.1399 40.3705C43.7689 40.4847 43.552 40.5505 43.5345 40.5055C43.4855 40.3912 44.7208 39.6469 46.201 39.2038C47.0058 38.9649 47.7442 38.8576 48.3496 38.8126C48.0171 37.7706 47.7687 36.9017 47.6007 36.1574C46.7714 36.1608 45.7356 36.2335 44.5703 36.4793C43.8074 36.6386 43.1845 36.8324 42.7611 36.964C42.3902 37.0782 42.1732 37.144 42.1557 37.099C42.1067 36.9848 43.342 36.2405 44.8222 35.7973C45.8545 35.4892 46.7714 35.3992 47.4502 35.3819C47.3733 34.8973 47.3383 34.4749 47.3523 34.0906V34.0526C47.3663 33.6683 47.4013 32.7128 46.7819 32.1209C46.4179 31.7712 45.9525 31.6639 45.6481 31.6258C46.0435 30.3553 46.4844 29.0502 46.9848 27.7139C47.6497 25.938 48.3601 24.2521 49.0984 22.6561C56.7865 25.526 62.2665 32.8652 62.2665 41.4471C62.2665 52.5181 53.1402 61.5258 41.9213 61.5258L41.9108 61.5224Z" fill="white"/>
</g>
<defs>
<clipPath id="clip0_665_2425">
<rect width="45.4916" height="47.4274" fill="white" transform="translate(19.165 16.4629)"/>
</clipPath>
</defs>
</svg>
