<svg width="83" height="83" viewBox="0 0 83 83" fill="none" xmlns="http://www.w3.org/2000/svg">
<g id="Group 2043682807">
<path id="Rectangle 39657" d="M79.6254 0.213379H4.01872C2.15251 0.213379 0.639648 1.72624 0.639648 3.59245V79.1991C0.639648 81.0653 2.15251 82.5782 4.01872 82.5782H67.716C68.65 82.5782 69.5423 82.1916 70.1811 81.5103L82.0904 68.8083C82.6776 68.182 83.0044 67.3557 83.0044 66.4971V3.59245C83.0044 1.72624 81.4916 0.213379 79.6254 0.213379Z" fill="#161616"/>
<path id="Union" fill-rule="evenodd" clip-rule="evenodd" d="M26.213 25.6503C19.4813 32.055 20.894 40.8887 21.0149 41.5679C18.3394 35.6312 19.6638 28.6206 24.3176 24.0725C28.9525 19.5423 35.9643 18.3585 41.8411 21.1162C41.051 20.9628 32.6928 19.4846 26.213 25.6503ZM36.9908 55.1974C35.983 54.6943 34.2802 53.8431 32.8301 52.4109C31.3764 50.9748 31.0438 49.8101 30.6304 48.3621C30.286 47.156 29.8855 45.7533 28.7341 43.8333C27.7753 42.2337 26.738 41.0134 25.9361 40.0702C24.9453 38.9047 24.314 38.1621 24.6343 37.649C25.0266 37.0213 26.4939 37.297 26.6546 37.3274C27.7497 37.5331 28.3626 38.1484 29.446 39.236C30.0108 39.803 30.7036 40.4984 31.6593 41.3311C33.2709 42.7353 33.653 42.8069 33.9542 42.7609C35.0977 42.5857 35.6929 40.6458 36.4089 37.6513C39.0821 26.4766 40.345 25.3746 41.1508 25.3006C41.2366 25.2928 41.4721 25.2741 41.696 25.4073C42.0361 25.609 42.6656 26.3457 41.235 33.1702C41.1956 33.358 41.1558 33.5454 41.1162 33.7314C40.6846 35.7599 40.2894 37.6179 40.9761 38.001C40.994 38.0111 41.04 38.0353 41.0946 38.0493C41.9172 38.2581 43.1812 35.7235 44.5604 32.9582C46.1957 29.6791 47.9928 26.0756 49.4075 26.3372C49.6548 26.3831 49.8154 26.5334 49.8747 26.5903C50.965 27.6394 49.2699 30.9474 47.6558 34.0975C46.1716 36.9942 44.7557 39.7573 45.6368 40.5079C45.6594 40.5274 45.6727 40.5383 45.6976 40.5531C46.4079 40.9662 48.0408 39.0156 49.86 36.8423L49.8604 36.8418C52.0911 34.177 54.6018 31.1777 56.0355 31.7902C56.1197 31.826 56.321 31.9125 56.4505 32.1212C57.0888 33.1524 54.95 35.5286 52.8074 37.909C50.667 40.287 48.5228 42.6692 49.1399 43.7189L49.1401 43.7194L49.1413 43.7212C49.1622 43.7571 49.173 43.7754 49.1922 43.7952C49.6368 44.254 51.3513 43.1009 53.2307 41.8369C55.4664 40.3333 57.9356 38.6727 58.7781 39.3818C58.9684 39.5422 59.0129 39.7704 59.0355 39.8872C59.206 40.7663 58.1286 41.56 56.0639 43.0811C55.5037 43.4938 54.8707 43.9601 54.1704 44.4961C51.7546 46.3449 51.1072 47.0559 50.8123 47.3939C50.0387 48.2804 49.6589 48.9312 49.2346 49.6581C49.0711 49.9383 48.901 50.2297 48.6992 50.5503L48.6974 50.5531C47.3835 52.6394 44.9684 56.4739 41.7171 56.7666C40.3738 56.8873 39.2459 56.3243 36.99 55.1974H36.9908ZM62.6283 41.6457C62.7493 42.3248 64.1619 51.1586 57.4302 57.5633C50.9504 63.7289 42.5931 62.2508 41.8021 62.0966C47.6789 64.8543 54.6907 63.6713 59.3256 59.1411C63.9793 54.5922 65.3039 47.5824 62.6283 41.6457Z" fill="white"/>
</g>
</svg>
