<svg width="83" height="83" viewBox="0 0 83 83" fill="none" xmlns="http://www.w3.org/2000/svg">
<g id="Group 2043682808">
<path id="Rectangle 39658" d="M79.1224 0.213379H3.51579C1.64958 0.213379 0.136719 1.72624 0.136719 3.59245V79.1991C0.136719 81.0653 1.64958 82.5782 3.51579 82.5782H67.2131C68.1471 82.5782 69.0393 82.1916 69.6781 81.5103L81.5875 68.8083C82.1747 68.182 82.5015 67.3557 82.5015 66.4971V3.59245C82.5015 1.72624 80.9886 0.213379 79.1224 0.213379Z" fill="#161616"/>
<path id="Vector" d="M41.3191 18.7983C28.8388 18.7983 18.7216 28.9155 18.7216 41.3959C18.7216 53.8762 28.8388 63.9934 41.3191 63.9934C53.7995 63.9934 63.9166 53.8762 63.9166 41.3959C63.9166 28.9155 53.7984 18.7983 41.3191 18.7983ZM47.14 33.1937C47.14 31.9666 48.1344 30.9721 49.3615 30.9721C50.5886 30.9721 51.583 31.9666 51.583 33.1937V36.1901C51.583 37.4172 50.5886 38.4116 49.3615 38.4116C48.1344 38.4116 47.14 37.4172 47.14 36.1901V33.1937ZM30.9541 33.1937C30.9541 31.9666 31.9485 30.9721 33.1756 30.9721C34.4027 30.9721 35.3971 31.9666 35.3971 33.1937V36.1901C35.3971 37.4172 34.4027 38.4116 33.1756 38.4116C31.9485 38.4116 30.9541 37.4172 30.9541 36.1901V33.1937ZM41.829 55.4503C35.7249 56.0228 29.8363 50.9101 29.7058 44.0857H51.8167C51.758 50.0786 47.2341 54.9434 41.83 55.4503H41.829Z" fill="white"/>
</g>
</svg>
