<svg width="42" height="35" viewBox="0 0 42 35" fill="none" xmlns="http://www.w3.org/2000/svg">
<g id="camera">
<path id="Exclude" fill-rule="evenodd" clip-rule="evenodd" d="M29.4973 6.86937H39.2049C40.7494 6.86937 41.9999 8.11992 41.9999 9.66438V32.059C41.9999 33.6035 40.7494 34.854 39.2049 34.854H2.79494C1.25049 34.854 -6.10352e-05 33.6035 -6.10352e-05 32.059V9.66438C-6.10352e-05 8.11992 1.25049 6.86937 2.79494 6.86937H12.5025L14.0067 2.3138C14.4562 0.947997 15.9718 0 17.7036 0H24.2963C26.0252 0 27.5437 0.947997 27.9932 2.3138L29.4973 6.86937ZM13.5659 20.0695C13.5659 15.9622 16.8955 12.6326 21.0027 12.6326C25.11 12.6326 28.4396 15.9622 28.4396 20.0695C28.4396 24.1767 25.11 27.5063 21.0027 27.5063C16.8955 27.5063 13.5659 24.1767 13.5659 20.0695ZM21.0027 10.6326C15.7909 10.6326 11.5659 14.8576 11.5659 20.0695C11.5659 25.2813 15.7909 29.5063 21.0027 29.5063C26.2146 29.5063 30.4396 25.2813 30.4396 20.0695C30.4396 14.8576 26.2146 10.6326 21.0027 10.6326Z" fill="white"/>
</g>
</svg>
