<svg width="130" height="42" viewBox="0 0 130 42" fill="none" xmlns="http://www.w3.org/2000/svg">
<path d="M67.0747 13.6787L61.95 26.1297H55.7425L50.708 13.6787H55.6523L59.153 22.5207L62.7439 13.6787H67.0747Z" fill="white"/>
<path d="M82.2331 13.6787V16.2591H74.2392V18.5328H80.3203V21.0049H74.2392V23.5493H82.2872V26.1297H70.8828V13.6787H82.2331Z" fill="white"/>
<path d="M94.7948 13.6787C96.1903 13.6787 97.2489 14.0155 97.9707 14.6892C98.7045 15.3509 99.0715 16.3012 99.0715 17.5403C99.0715 18.5268 98.8489 19.3328 98.4038 19.9583C97.9707 20.5719 97.3271 20.9989 96.473 21.2395L99.5226 26.1297H96.7076L93.8023 21.4561H89.5076V26.1297H86.9814V13.6787H94.7948ZM96.5271 17.3418C96.5271 16.8005 96.3707 16.3734 96.0579 16.0606C95.7452 15.7358 95.2098 15.5734 94.452 15.5734H89.5076V19.5433H94.452C95.1978 19.5433 95.7271 19.3869 96.0399 19.0741C96.3647 18.7493 96.5271 18.3223 96.5271 17.793V17.3418Z" fill="white"/>
<path d="M105.186 22.737C105.295 23.1821 105.457 23.549 105.674 23.8378C105.89 24.1265 106.173 24.3551 106.522 24.5235C106.871 24.6919 107.292 24.8122 107.785 24.8844C108.29 24.9445 108.88 24.9746 109.553 24.9746C110.961 24.9746 111.977 24.7941 112.603 24.4332C113.24 24.0723 113.559 23.513 113.559 22.7551C113.559 22.2378 113.415 21.8408 113.126 21.5641C112.849 21.2754 112.476 21.0588 112.007 20.9145C111.538 20.7701 111.003 20.6679 110.401 20.6077C109.812 20.5476 109.204 20.4934 108.579 20.4453C107.965 20.3852 107.358 20.307 106.756 20.2107C106.167 20.1025 105.637 19.934 105.168 19.7055C104.699 19.4649 104.32 19.1341 104.031 18.713C103.755 18.292 103.616 17.7386 103.616 17.0529C103.616 15.8258 104.11 14.9236 105.096 14.3461C106.095 13.7687 107.508 13.48 109.337 13.48C111.141 13.48 112.519 13.7507 113.469 14.292C114.419 14.8213 114.961 15.7055 115.093 16.9446H113.288C113.228 16.5356 113.096 16.1987 112.891 15.9341C112.687 15.6574 112.416 15.4409 112.079 15.2845C111.743 15.1161 111.34 15.0018 110.87 14.9416C110.413 14.8694 109.902 14.8333 109.337 14.8333C108.037 14.8333 107.045 14.9958 106.359 15.3206C105.686 15.6454 105.349 16.2168 105.349 17.0348C105.349 17.516 105.487 17.889 105.764 18.1536C106.052 18.4183 106.431 18.6228 106.901 18.7671C107.37 18.8995 107.899 18.9897 108.489 19.0378C109.09 19.0859 109.698 19.1401 110.311 19.2002C110.937 19.2604 111.544 19.3446 112.134 19.4529C112.735 19.5611 113.27 19.7356 113.74 19.9762C114.209 20.2168 114.582 20.5536 114.858 20.9867C115.147 21.4197 115.291 21.9852 115.291 22.6829C115.291 23.946 114.834 24.8723 113.92 25.4618C113.006 26.0392 111.556 26.328 109.571 26.328C108.573 26.328 107.707 26.2618 106.973 26.1295C106.239 25.9971 105.619 25.7926 105.114 25.5159C104.621 25.2272 104.23 24.8543 103.941 24.3972C103.665 23.94 103.478 23.3866 103.382 22.737H105.186Z" fill="white"/>
<path d="M129.927 13.6787V14.7434H121.5V19.2546H128.105V20.3192H121.5V25.0651H130V26.1297H120.165V13.6787H129.927Z" fill="white"/>
<path d="M41.9139 0H0V41.9139H41.9139V0Z" fill="#FF0032"/>
<path d="M27.924 3.19531V5.15072H32.1366V12.8009L32.1374 12.9269H34.4958V5.15072H38.7083V3.19531H27.924Z" fill="white"/>
<path d="M12.7534 3.22461L9.6724 9.62148L6.59141 3.22461H3.22754V12.8971H5.58586V5.9747L8.5974 11.8229H10.7475L13.7598 5.9747V12.8971H16.1181V3.22461H12.7534Z" fill="white"/>
<path d="M36.3441 35.4648C36.3001 35.822 36.1373 36.1541 35.882 36.4077C35.6168 36.6492 35.2908 36.8136 34.939 36.8834C34.4251 36.9853 33.9018 37.0327 33.3779 37.0249C32.8201 37.0349 32.2644 36.9536 31.7329 36.784C31.2972 36.6425 30.9214 36.3591 30.6656 35.979C30.4084 35.5985 30.2815 35.049 30.2815 34.3503V33.3593C30.2815 32.6555 30.411 32.106 30.6656 31.7254C30.9208 31.3461 31.2956 31.0631 31.7303 30.9213C32.2618 30.7518 32.8176 30.6704 33.3754 30.6804C33.8993 30.6725 34.4225 30.72 34.9365 30.8218C35.2882 30.8919 35.6141 31.0564 35.8795 31.2976C36.1347 31.5513 36.2974 31.8834 36.3415 32.2406H38.7015C38.6589 31.4966 38.3751 30.7867 37.8931 30.2183C37.4178 29.6956 36.8025 29.3202 36.1204 29.1365C35.2256 28.9004 34.3023 28.7899 33.3771 28.8081C32.2463 28.8081 31.2657 28.971 30.4624 29.2917C29.6678 29.5976 29.0021 30.1667 28.5765 30.9041C28.1607 31.6182 27.9421 32.5715 27.9275 33.7399V33.8471L28.0536 33.8522H27.9275V33.9594C27.9421 35.1279 28.1607 36.0811 28.5765 36.7952C29.0021 37.5326 29.6678 38.1018 30.4624 38.4077C31.2665 38.7283 32.2481 38.8912 33.3771 38.8912C34.3023 38.9099 35.2257 38.7994 36.1204 38.5628C36.8029 38.3799 37.4183 38.0043 37.8931 37.481C38.3752 36.9127 38.659 36.2028 38.7015 35.4587L36.3441 35.4648Z" fill="white"/>
<path d="M41.9139 0H0V41.9139H41.9139V0Z" fill="#FF0032"/>
<path d="M27.924 3.19531V5.15072H32.1366V12.8009L32.1374 12.9269H34.4958V5.15072H38.7083V3.19531H27.924Z" fill="white"/>
<path d="M12.7534 3.22461L9.6724 9.62148L6.59141 3.22461H3.22754V12.8971H5.58586V5.9747L8.5974 11.8229H10.7475L13.7598 5.9747V12.8971H16.1181V3.22461H12.7534Z" fill="white"/>
<path d="M36.3441 35.4648C36.3 35.822 36.1373 36.1541 35.882 36.4077C35.6167 36.6491 35.2907 36.8136 34.939 36.8835C34.425 36.9853 33.9018 37.0327 33.3779 37.0249C32.8201 37.0349 32.2644 36.9535 31.7329 36.784C31.2972 36.6425 30.9214 36.3591 30.6655 35.9791C30.4084 35.5985 30.2815 35.049 30.2815 34.3503V33.3593C30.2815 32.6555 30.411 32.106 30.6655 31.7254C30.9208 31.3461 31.2956 31.0631 31.7303 30.9213C32.2618 30.7517 32.8175 30.6703 33.3754 30.6804C33.8993 30.6726 34.4225 30.72 34.9365 30.8218C35.2881 30.8919 35.6141 31.0564 35.8794 31.2976C36.1347 31.5513 36.2974 31.8833 36.3414 32.2405H38.7015C38.6589 31.4965 38.3751 30.7867 37.8931 30.2183C37.4178 29.6956 36.8026 29.3201 36.1203 29.1365C35.2256 28.9004 34.3023 28.7899 33.3771 28.8081C32.2463 28.8081 31.2657 28.971 30.4624 29.2916C29.6678 29.5975 29.0021 30.1667 28.5764 30.9041C28.1607 31.6182 27.9421 32.5714 27.9275 33.7399V33.8471L28.0536 33.8522H27.9275V33.9593C27.9421 35.1278 28.1607 36.0811 28.5764 36.7952C29.0021 37.5326 29.6678 38.1018 30.4624 38.4077C31.2665 38.7283 32.2481 38.8911 33.3771 38.8911C34.3023 38.9098 35.2256 38.7993 36.1203 38.5628C36.8029 38.3798 37.4183 38.0042 37.8931 37.4809C38.3752 36.9127 38.659 36.2027 38.7015 35.4587L36.3441 35.4648Z" fill="white"/>
</svg>
