<svg width="77" height="77" viewBox="0 0 77 77" fill="none" xmlns="http://www.w3.org/2000/svg">
<g id="Icons">
<g id="Union">
<path d="M46.5218 30.074C41.0311 29.7058 35.5397 29.3385 30.049 28.9703V28.9712C30.1177 29.1941 30.1862 29.4172 30.2548 29.6404C30.3233 29.8635 30.3918 30.0867 30.4606 30.3096L45.552 31.2965C46.5079 34.2296 47.4638 37.1629 48.4196 40.0962L50.5981 46.7807C50.8471 46.7754 51.0961 46.7704 51.3452 46.7654C51.5957 46.7604 51.8463 46.7554 52.0968 46.7501C51.1685 43.9729 50.24 41.1959 49.3116 38.4189C48.3816 35.6373 47.4516 32.8558 46.5218 30.074Z" fill="white"/>
<path fill-rule="evenodd" clip-rule="evenodd" d="M54.9126 29.5296C48.3532 18.9037 36.2215 14.103 27.816 18.8051C19.4096 23.5073 17.9127 35.9323 24.4721 46.5573C31.0315 57.1823 43.1632 61.9839 51.5697 57.2817C59.9761 52.5796 61.473 40.1546 54.9135 29.5296H54.9126ZM34.3039 47.6009C33.3383 44.1517 32.3724 40.7026 31.4066 37.2535C30.5286 34.1184 29.6506 30.9833 28.7729 27.8482C31.8398 28.0516 34.9065 28.2548 37.9732 28.4581C41.0622 28.6628 44.1512 28.8674 47.2404 29.0724C48.2233 32.0274 49.2066 34.9824 50.1898 37.9374C51.2713 41.1879 52.3528 44.4385 53.4341 47.689C47.057 47.6602 40.681 47.6314 34.3039 47.6017V47.6009ZM53.1894 34.4289C52.0665 32.3104 46.3018 22.1627 35.865 21.3407C32.5404 21.079 29.7675 21.8442 28.0121 22.4986C29.0947 21.668 30.708 20.6637 32.8401 20.1192C39.4811 18.4238 46.2945 22.4262 49.8895 26.1397C57.1556 33.6445 56.2032 45.0548 56.0804 45.074C56.0756 45.0748 56.0719 45.058 56.0686 45.0245C56.0638 44.976 56.0597 44.8925 56.0541 44.7767C55.999 43.6334 55.7914 39.338 53.1894 34.4289Z" fill="white"/>
<path d="M32.5642 57.232C28.7253 54.8587 25.3805 51.4732 22.8909 47.4421C19.5187 41.9782 18.0337 35.8773 18.7102 30.2616C18.987 27.966 19.613 25.8483 20.5746 23.9488C15.7467 29.8306 15.7054 39.7567 21.0852 48.4717C26.4988 57.2407 35.7082 62.0424 43.4868 60.8086C39.8358 60.6314 36.0795 59.4046 32.5642 57.232Z" fill="white"/>
</g>
</g>
</svg>
