<svg width="32" height="41" viewBox="0 0 32 41" fill="none" xmlns="http://www.w3.org/2000/svg">
<g id="Share">
<path id="Union" fill-rule="evenodd" clip-rule="evenodd" d="M25.8956 2.49897C24.7646 1.83368 23.3618 1.83368 22.2307 2.49897C21.0997 3.16426 20.418 4.39032 20.4499 5.70215C20.4503 5.71835 20.4503 5.73456 20.4499 5.75075C20.418 7.06258 21.0997 8.28864 22.2307 8.95393C23.3618 9.61923 24.7646 9.61923 25.8956 8.95393C27.0267 8.28864 27.7083 7.06258 27.6764 5.75075C27.676 5.73456 27.676 5.71835 27.6764 5.70215C27.7083 4.39032 27.0267 3.16426 25.8956 2.49897ZM21.2167 0.775077C22.9737 -0.258359 25.1527 -0.258359 26.9096 0.775077C28.6596 1.8044 29.7169 3.69789 29.6764 5.72645C29.7169 7.75502 28.6596 9.6485 26.9096 10.6778C25.1527 11.7113 22.9737 11.7113 21.2167 10.6778C20.9994 10.55 20.7927 10.4088 20.5975 10.2557L14.6942 15.782C15.4408 17.0233 15.8611 18.4812 15.8387 20.0355C15.8605 21.5459 15.4641 22.9655 14.7564 24.1836L22.9876 30.0183C23.8957 29.3318 25.0201 28.9144 26.244 28.8869C29.3194 28.8178 31.8776 31.2364 31.9812 34.3108L31.9816 34.3281C32.0332 37.47 29.5294 40.0597 26.3875 40.114L26.3702 40.1141C23.2941 40.1142 20.7907 37.6389 20.7561 34.5629C20.7435 33.4386 21.0624 32.3871 21.6224 31.5021L13.5443 25.7759C12.1167 27.234 10.1368 28.1526 7.93538 28.1898C7.92398 28.19 7.91259 28.19 7.90119 28.1898C3.46969 28.1132 -0.0628718 24.4651 0.000974041 20.0355C-0.0628718 15.6058 3.46969 11.9577 7.90119 11.8811C7.91259 11.8809 7.92398 11.8809 7.93538 11.8811C10.0905 11.9175 12.0334 12.7987 13.4535 14.2038L19.2688 8.76C18.722 7.86251 18.4282 6.81389 18.45 5.72645C18.4094 3.69789 19.4668 1.8044 21.2167 0.775077ZM12.52 16.1516C11.4382 14.798 9.78512 13.9178 7.91867 13.8811C4.59344 13.9478 1.94635 16.6914 2.00096 20.019C2.00114 20.03 2.00114 20.0409 2.00096 20.0519C1.94635 23.3795 4.59344 26.1231 7.91867 26.1898C9.76253 26.1535 11.3981 25.2941 12.4805 23.9683C12.5018 23.9271 12.5262 23.8869 12.5537 23.848C12.5968 23.7872 12.6454 23.7327 12.6984 23.6847C13.4353 22.6647 13.8609 21.4067 13.8387 20.0519C13.8385 20.0409 13.8385 20.03 13.8387 20.0191C13.8613 18.6437 13.4223 17.3682 12.6648 16.3402C12.66 16.3353 12.6553 16.3303 12.6506 16.3253C12.5999 16.2712 12.5564 16.2128 12.52 16.1516ZM26.2889 30.8864C28.2659 30.842 29.9109 32.3944 29.982 34.3695C30.0107 36.401 28.3928 38.0744 26.3615 38.1141C24.3852 38.1095 22.7782 36.5178 22.756 34.5405C22.7337 32.5603 24.3091 30.9309 26.2889 30.8864Z" fill="white"/>
</g>
</svg>
