<svg width="44" height="44" viewBox="0 0 44 44" fill="none" xmlns="http://www.w3.org/2000/svg">
<g id="Vector">
<path id="Vector_2" d="M21.9999 0C9.84854 0 -6.10352e-05 9.8486 -6.10352e-05 22C-6.10352e-05 34.1514 9.84854 44 21.9999 44C34.1513 44 43.9999 34.1514 43.9999 22C43.9999 9.8486 34.1472 0 21.9999 0ZM27.6665 14.0142C27.6665 12.8176 28.6328 11.8512 29.8295 11.8512C31.0261 11.8512 31.9925 12.8176 31.9925 14.0142V16.9297C31.9925 18.1264 31.0261 19.0927 29.8295 19.0927C28.6328 19.0927 27.6665 18.1264 27.6665 16.9297V14.0142ZM11.9087 14.0142C11.9087 12.8176 12.8751 11.8512 14.0717 11.8512C15.2684 11.8512 16.2347 12.8176 16.2347 14.0142V16.9297C16.2347 18.1264 15.2684 19.0927 14.0717 19.0927C12.8751 19.0927 11.9087 18.1264 11.9087 16.9297V14.0142ZM22.4975 35.6811C16.5555 36.2404 10.8231 31.2606 10.6956 24.6153H32.2227C32.1652 30.4505 27.7611 35.1877 22.5016 35.6811H22.4975Z" fill="white"/>
</g>
</svg>
